<?xml version="1.0" standalone="no"?><!-- Generator: Gravit.io --><svg xmlns="http://www.w3.org/2000/svg" xmlns:xlink="http://www.w3.org/1999/xlink" style="isolation:isolate" viewBox="607.142 209.124 300 300" width="300" height="300"><defs><clipPath id="_clipPath_bpa4iV8QthE0Masl6GjPP9aYxNyVV2zF"><rect x="607.142" y="209.124" width="300" height="300"/></clipPath></defs><g clip-path="url(#_clipPath_bpa4iV8QthE0Masl6GjPP9aYxNyVV2zF)"><g opacity="0"><rect x="607.142" y="209.124" width="300" height="300" transform="matrix(1,0,0,1,0,0)" fill="rgb(235,235,235)"/></g><path d=" M 752.076 311.195 C 726.197 311.195 701.843 321.287 683.543 339.586 C 665.244 357.885 655.153 382.239 655.153 408.119 C 655.153 433.998 665.244 458.352 683.543 476.652 C 701.843 494.951 726.197 505.042 752.076 505.042 C 777.955 505.042 802.31 494.951 820.609 476.652 C 838.908 458.352 849 433.998 849 408.119 C 849 382.239 838.908 357.885 820.609 339.586 C 802.31 321.242 778 311.195 752.076 311.195 L 752.076 311.195 Z " fill="rgb(0,0,0)"/><path d=" M 764.768 340.05 C 736.702 336.278 714.506 329.102 715.188 324.025 C 715.87 318.949 739.174 317.886 767.239 321.657 C 795.305 325.429 817.501 332.606 816.819 337.682 C 816.137 342.758 792.833 343.821 764.768 340.05 Z " fill="rgb(0,0,0)"/><g><g><path d=" M 833.953 297.813 C 833.968 297.79 834.069 297.753 834.084 297.73" fill="rgb(0,0,0)"/><path d=" M 834.084 297.73 C 834.509 297.176 834.686 296.515 834.588 295.848 C 840.335 276.469 848.104 249.866 848.644 245.854 C 850.565 231.557 815.357 218.952 781.245 214.368 C 747.132 209.784 709.846 212.647 707.924 226.948 C 707.379 231.003 707.894 259.218 708.328 279.468 C 708.315 279.563 708.287 279.659 708.289 279.756 C 708.511 290.013 708.649 297.103 708.698 298.926 C 690.392 301.209 677.332 306.536 676.1 315.707 C 673.691 333.634 718.72 349.521 762.296 355.377 C 805.872 361.232 853.499 357.796 855.907 339.869 C 857.14 330.697 845.95 322.11 828.896 315.077 C 829.403 313.376 831.196 307.107 833.953 297.813" fill="rgb(0,0,0)"/></g><path d=" M 834.084 297.73 C 834.084 297.73 834.084 297.73 834.084 297.73" fill="rgb(0,0,0)"/></g><path d=" M 819.882 311.957 C 805.497 306.707 787.967 302.597 770.675 300.274 C 753.382 297.95 735.389 297.289 720.129 298.553 C 720.049 294.189 719.959 289.021 719.876 282.818 C 734.446 279.642 753.599 279.254 773.146 281.881 C 792.708 284.51 811.064 289.941 824.279 296.847 C 822.562 302.808 821.111 307.769 819.882 311.957 Z " fill="rgb(255,255,255)"/><path d=" M 820.385 355.598 L 745.573 355.598 L 775.892 325.278 C 793.788 330.436 809.307 341.245 820.385 355.598 Z " fill="rgb(255,255,255)"/><path d=" M 710.365 332.724 C 723.123 325.631 737.479 321.911 752.076 321.914 C 755.889 321.914 759.611 322.184 763.289 322.632 L 728.754 357.168 L 710.365 375.557 L 710.365 332.724 Z " fill="rgb(255,255,255)"/><path d=" M 699.6 339.81 L 699.6 414.577 L 669.281 384.303 C 674.439 366.407 685.248 350.888 699.6 339.81 L 699.6 339.81 Z " fill="rgb(255,255,255)"/><path d=" M 676.726 449.83 C 669.633 437.072 665.913 422.716 665.917 408.119 C 665.917 404.306 666.186 400.584 666.634 396.906 L 719.559 449.83 L 676.726 449.83 Z " fill="rgb(255,255,255)"/><path d=" M 683.813 460.595 L 758.58 460.595 L 728.26 490.914 C 710.604 485.777 695.038 475.159 683.813 460.595 L 683.813 460.595 Z " fill="rgb(255,255,255)"/><path d=" M 793.878 484.191 C 781.12 491.283 766.763 495.004 752.166 495 C 748.354 495 744.631 494.731 740.953 494.282 L 775.489 459.747 L 793.878 441.358 L 793.878 484.191 Z " fill="rgb(255,255,255)"/><path d=" M 793.833 425.386 L 792.981 426.239 L 769.389 449.83 L 734.809 449.83 L 733.956 448.978 L 710.409 425.431 L 710.409 390.851 L 734.853 366.407 L 769.434 366.452 L 793.878 390.851 L 793.878 425.386 L 793.833 425.386 Z " fill="rgb(255,255,255)"/><path d=" M 804.597 476.382 L 804.597 401.526 L 834.917 431.845 C 829.782 449.527 819.165 465.122 804.597 476.382 L 804.597 476.382 Z " fill="rgb(255,255,255)"/><path d=" M 838.236 408.074 C 838.236 411.841 837.967 415.564 837.518 419.242 L 784.593 366.362 L 827.471 366.362 C 834.334 378.741 838.236 392.959 838.236 408.074 Z " fill="rgb(255,255,255)"/></g></svg>